<svg width="33" height="34" viewBox="0 0 33 34" fill="none" xmlns="http://www.w3.org/2000/svg">
<rect width="33" height="32.7407" rx="5.07692" fill="url(#paint0_linear)"/>
<rect x="6.34604" y="5.67172" width="20.3077" height="27.6937" rx="0.634615" stroke="#F15827" stroke-width="1.26923"/>
<rect x="6.34604" y="13.8568" width="20.3077" height="19.5085" rx="0.634615" stroke="#F15827" stroke-width="1.26923"/>
<path d="M17.5892 20.3887L16.5814 17.9604C16.4341 17.6055 15.9315 17.6055 15.7842 17.9604L14.7764 20.3887C14.7128 20.5419 14.5671 20.6451 14.4016 20.6542L11.8677 20.7939C11.4785 20.8153 11.3149 21.3009 11.6119 21.5535L13.608 23.251C13.7316 23.3561 13.7858 23.5215 13.7484 23.6793L13.1815 26.0697C13.0935 26.4407 13.4945 26.7351 13.8221 26.5401L15.9621 25.2662C16.0981 25.1852 16.2675 25.1852 16.4035 25.2662L18.5435 26.5401C18.8711 26.7351 19.2721 26.4407 19.1841 26.0697L18.6172 23.6793C18.5798 23.5215 18.634 23.3561 18.7576 23.251L20.7537 21.5535C21.0507 21.3009 20.8871 20.8153 20.4979 20.7939L17.964 20.6542C17.7985 20.6451 17.6528 20.5419 17.5892 20.3887Z" stroke="#F15827" stroke-width="0.698077"/>
<path d="M13.9059 10.4527H12.121V12.2964H11.1914V7.78467H14.129V8.53765H12.121V9.70277H13.9059V10.4527ZM15.5978 10.7067V12.2964H14.6682V7.78467H16.4282C16.767 7.78467 17.0645 7.84664 17.3207 7.97059C17.5789 8.09454 17.7772 8.27117 17.9156 8.50047C18.054 8.72771 18.1232 8.98697 18.1232 9.27825C18.1232 9.72033 17.9714 10.0694 17.6677 10.3256C17.3661 10.5797 16.9478 10.7067 16.4127 10.7067H15.5978ZM15.5978 9.95376H16.4282C16.6741 9.95376 16.861 9.89592 16.9891 9.78024C17.1192 9.66455 17.1843 9.49929 17.1843 9.28444C17.1843 9.0634 17.1192 8.88471 16.9891 8.74837C16.8589 8.61202 16.6792 8.54179 16.4499 8.53765H15.5978V9.95376ZM22.1608 8.53765H20.7788V12.2964H19.8492V8.53765H18.4858V7.78467H22.1608V8.53765Z" fill="#F15827"/>
<defs>
<linearGradient id="paint0_linear" x1="16.5" y1="0" x2="16.5" y2="32.7407" gradientUnits="userSpaceOnUse">
<stop stop-color="white"/>
<stop offset="1" stop-color="white" stop-opacity="0.22"/>
</linearGradient>
</defs>
</svg>
